<?xml version="1.0" encoding="utf-8" ?>
<svg baseProfile="full" height="1536" version="1.1" width="1024" xmlns="http://www.w3.org/2000/svg" xmlns:ev="http://www.w3.org/2001/xml-events" xmlns:xlink="http://www.w3.org/1999/xlink"><defs /><polyline fill="none" points="457.0,109.0 456.0,110.0 432.0,110.0 431.0,111.0 414.0,111.0 413.0,112.0 396.0,112.0 395.0,113.0 385.0,113.0 384.0,114.0 373.0,114.0 372.0,115.0 360.0,115.0 359.0,116.0 351.0,116.0 350.0,117.0 341.0,117.0 340.0,118.0 334.0,118.0 333.0,119.0 325.0,119.0 324.0,120.0 319.0,120.0 318.0,121.0 311.0,121.0 310.0,122.0 305.0,122.0 304.0,123.0 299.0,123.0 298.0,124.0 293.0,124.0 292.0,125.0 287.0,125.0 286.0,126.0 281.0,126.0 280.0,127.0 276.0,127.0 275.0,128.0 272.0,128.0 271.0,129.0 267.0,129.0 266.0,130.0 263.0,130.0 262.0,131.0 259.0,131.0 258.0,132.0 255.0,132.0 254.0,133.0 251.0,133.0 250.0,134.0 248.0,134.0 247.0,135.0 245.0,135.0 244.0,136.0 241.0,136.0 240.0,137.0 238.0,137.0 237.0,138.0 236.0,138.0 235.0,139.0 233.0,139.0 232.0,140.0 230.0,140.0 229.0,141.0 227.0,141.0 226.0,142.0 225.0,142.0 224.0,143.0 223.0,143.0 222.0,144.0 220.0,144.0 219.0,145.0 218.0,145.0 217.0,146.0 216.0,146.0 215.0,147.0 214.0,147.0 213.0,148.0 212.0,148.0 211.0,149.0 210.0,149.0 208.0,151.0 207.0,151.0 204.0,154.0 203.0,154.0 199.0,158.0 199.0,159.0 196.0,162.0 196.0,163.0 195.0,164.0 195.0,165.0 194.0,166.0 194.0,168.0 193.0,169.0 193.0,175.0 192.0,176.0 192.0,178.0 193.0,179.0 193.0,182.0 194.0,183.0 194.0,186.0 196.0,188.0 196.0,189.0 199.0,192.0 199.0,193.0 201.0,195.0 201.0,196.0 199.0,198.0 199.0,199.0 197.0,201.0 197.0,202.0 196.0,203.0 196.0,204.0 195.0,205.0 195.0,207.0 194.0,208.0 194.0,210.0 193.0,211.0 193.0,216.0 192.0,217.0 192.0,221.0 193.0,222.0 193.0,226.0 194.0,227.0 194.0,230.0 196.0,232.0 196.0,234.0 198.0,236.0 198.0,237.0 208.0,247.0 207.0,248.0 207.0,254.0 206.0,255.0 206.0,261.0 205.0,262.0 205.0,264.0 204.0,265.0 204.0,268.0 203.0,269.0 203.0,271.0 202.0,272.0 202.0,273.0 201.0,274.0 201.0,276.0 200.0,277.0 200.0,278.0 199.0,279.0 199.0,280.0 198.0,281.0 198.0,282.0 197.0,283.0 197.0,284.0 196.0,285.0 196.0,286.0 195.0,287.0 195.0,288.0 193.0,290.0 193.0,291.0 192.0,292.0 192.0,293.0 191.0,294.0 191.0,296.0 190.0,297.0 190.0,298.0 189.0,299.0 189.0,300.0 188.0,301.0 188.0,302.0 187.0,303.0 187.0,304.0 186.0,305.0 186.0,307.0 185.0,308.0 185.0,309.0 184.0,310.0 184.0,312.0 183.0,313.0 183.0,314.0 182.0,315.0 182.0,317.0 181.0,318.0 181.0,319.0 180.0,320.0 180.0,322.0 179.0,323.0 179.0,325.0 178.0,326.0 178.0,329.0 177.0,330.0 177.0,332.0 176.0,333.0 176.0,335.0 175.0,336.0 175.0,338.0 174.0,339.0 174.0,342.0 173.0,343.0 173.0,346.0 172.0,347.0 172.0,351.0 171.0,352.0 171.0,356.0 170.0,357.0 170.0,362.0 169.0,363.0 169.0,369.0 168.0,370.0 168.0,376.0 167.0,377.0 167.0,389.0 166.0,390.0 166.0,997.0 167.0,998.0 167.0,1000.0 166.0,1001.0 166.0,1014.0 167.0,1015.0 166.0,1016.0 166.0,1029.0 167.0,1030.0 166.0,1031.0 166.0,1039.0 167.0,1040.0 166.0,1041.0 166.0,1046.0 167.0,1047.0 167.0,1048.0 166.0,1049.0 166.0,1055.0 167.0,1056.0 167.0,1057.0 166.0,1058.0 166.0,1059.0 167.0,1060.0 167.0,1072.0 166.0,1073.0 166.0,1075.0 167.0,1076.0 167.0,1080.0 166.0,1081.0 166.0,1083.0 167.0,1084.0 167.0,1087.0 166.0,1088.0 166.0,1093.0 167.0,1094.0 167.0,1095.0 166.0,1096.0 166.0,1101.0 167.0,1102.0 167.0,1111.0 166.0,1112.0 166.0,1117.0 167.0,1118.0 167.0,1128.0 166.0,1129.0 166.0,1138.0 167.0,1139.0 166.0,1140.0 167.0,1141.0 167.0,1145.0 166.0,1146.0 166.0,1147.0 167.0,1148.0 167.0,1151.0 166.0,1152.0 166.0,1156.0 167.0,1157.0 167.0,1160.0 166.0,1161.0 166.0,1162.0 167.0,1163.0 166.0,1164.0 167.0,1165.0 167.0,1177.0 166.0,1178.0 166.0,1180.0 167.0,1181.0 167.0,1211.0 168.0,1212.0 168.0,1221.0 169.0,1222.0 169.0,1229.0 170.0,1230.0 170.0,1235.0 171.0,1236.0 171.0,1241.0 172.0,1242.0 172.0,1245.0 173.0,1246.0 173.0,1249.0 174.0,1250.0 174.0,1253.0 175.0,1254.0 175.0,1256.0 176.0,1257.0 176.0,1259.0 177.0,1260.0 177.0,1262.0 178.0,1263.0 178.0,1266.0 179.0,1267.0 179.0,1269.0 180.0,1270.0 180.0,1271.0 181.0,1272.0 181.0,1274.0 182.0,1275.0 182.0,1276.0 183.0,1277.0 183.0,1279.0 184.0,1280.0 184.0,1281.0 185.0,1282.0 185.0,1283.0 186.0,1284.0 186.0,1286.0 188.0,1288.0 188.0,1290.0 190.0,1292.0 190.0,1294.0 192.0,1296.0 192.0,1298.0 194.0,1300.0 194.0,1301.0 195.0,1302.0 195.0,1303.0 197.0,1305.0 197.0,1306.0 199.0,1308.0 199.0,1309.0 201.0,1311.0 201.0,1312.0 203.0,1314.0 203.0,1315.0 207.0,1319.0 207.0,1320.0 213.0,1326.0 213.0,1327.0 226.0,1340.0 227.0,1340.0 233.0,1346.0 234.0,1346.0 238.0,1350.0 239.0,1350.0 242.0,1353.0 243.0,1353.0 245.0,1355.0 246.0,1355.0 248.0,1357.0 249.0,1357.0 250.0,1358.0 251.0,1358.0 253.0,1360.0 254.0,1360.0 256.0,1362.0 257.0,1362.0 258.0,1363.0 259.0,1363.0 260.0,1364.0 261.0,1364.0 263.0,1366.0 264.0,1366.0 265.0,1367.0 266.0,1367.0 267.0,1368.0 268.0,1368.0 269.0,1369.0 270.0,1369.0 271.0,1370.0 272.0,1370.0 273.0,1371.0 275.0,1371.0 277.0,1373.0 279.0,1373.0 280.0,1374.0 281.0,1374.0 282.0,1375.0 283.0,1375.0 284.0,1376.0 286.0,1376.0 287.0,1377.0 288.0,1377.0 289.0,1378.0 290.0,1378.0 291.0,1379.0 293.0,1379.0 294.0,1380.0 296.0,1380.0 297.0,1381.0 299.0,1381.0 300.0,1382.0 302.0,1382.0 303.0,1383.0 305.0,1383.0 306.0,1384.0 307.0,1384.0 308.0,1385.0 311.0,1385.0 312.0,1386.0 314.0,1386.0 315.0,1387.0 317.0,1387.0 318.0,1388.0 320.0,1388.0 321.0,1389.0 323.0,1389.0 324.0,1390.0 327.0,1390.0 328.0,1391.0 331.0,1391.0 332.0,1392.0 335.0,1392.0 336.0,1393.0 339.0,1393.0 340.0,1394.0 344.0,1394.0 345.0,1395.0 348.0,1395.0 349.0,1396.0 353.0,1396.0 354.0,1397.0 358.0,1397.0 359.0,1398.0 363.0,1398.0 364.0,1399.0 368.0,1399.0 369.0,1400.0 373.0,1400.0 374.0,1401.0 380.0,1401.0 381.0,1402.0 386.0,1402.0 387.0,1403.0 394.0,1403.0 395.0,1404.0 402.0,1404.0 403.0,1405.0 411.0,1405.0 412.0,1406.0 420.0,1406.0 421.0,1407.0 429.0,1407.0 430.0,1408.0 445.0,1408.0 446.0,1409.0 456.0,1409.0 457.0,1410.0 482.0,1410.0 483.0,1411.0 543.0,1411.0 544.0,1410.0 567.0,1410.0 568.0,1409.0 582.0,1409.0 583.0,1408.0 595.0,1408.0 596.0,1407.0 606.0,1407.0 607.0,1406.0 615.0,1406.0 616.0,1405.0 623.0,1405.0 624.0,1404.0 631.0,1404.0 632.0,1403.0 637.0,1403.0 638.0,1402.0 645.0,1402.0 646.0,1401.0 652.0,1401.0 653.0,1400.0 657.0,1400.0 658.0,1399.0 663.0,1399.0 664.0,1398.0 668.0,1398.0 669.0,1397.0 673.0,1397.0 674.0,1396.0 678.0,1396.0 679.0,1395.0 682.0,1395.0 683.0,1394.0 687.0,1394.0 688.0,1393.0 691.0,1393.0 692.0,1392.0 695.0,1392.0 696.0,1391.0 699.0,1391.0 700.0,1390.0 702.0,1390.0 703.0,1389.0 706.0,1389.0 707.0,1388.0 709.0,1388.0 710.0,1387.0 712.0,1387.0 713.0,1386.0 715.0,1386.0 716.0,1385.0 718.0,1385.0 719.0,1384.0 721.0,1384.0 722.0,1383.0 724.0,1383.0 725.0,1382.0 727.0,1382.0 728.0,1381.0 729.0,1381.0 730.0,1380.0 732.0,1380.0 733.0,1379.0 734.0,1379.0 735.0,1378.0 736.0,1378.0 737.0,1377.0 739.0,1377.0 740.0,1376.0 741.0,1376.0 742.0,1375.0 744.0,1375.0 745.0,1374.0 746.0,1374.0 747.0,1373.0 748.0,1373.0 749.0,1372.0 750.0,1372.0 751.0,1371.0 752.0,1371.0 753.0,1370.0 754.0,1370.0 755.0,1369.0 756.0,1369.0 757.0,1368.0 759.0,1368.0 761.0,1366.0 762.0,1366.0 763.0,1365.0 764.0,1365.0 765.0,1364.0 766.0,1364.0 768.0,1362.0 769.0,1362.0 770.0,1361.0 771.0,1361.0 773.0,1359.0 774.0,1359.0 776.0,1357.0 777.0,1357.0 778.0,1356.0 779.0,1356.0 782.0,1353.0 783.0,1353.0 785.0,1351.0 786.0,1351.0 790.0,1347.0 791.0,1347.0 794.0,1344.0 795.0,1344.0 814.0,1325.0 814.0,1324.0 817.0,1321.0 817.0,1320.0 820.0,1317.0 820.0,1316.0 823.0,1313.0 823.0,1312.0 825.0,1310.0 825.0,1309.0 827.0,1307.0 827.0,1306.0 828.0,1305.0 828.0,1304.0 830.0,1302.0 830.0,1301.0 832.0,1299.0 832.0,1298.0 833.0,1297.0 833.0,1296.0 834.0,1295.0 834.0,1294.0 835.0,1293.0 835.0,1292.0 836.0,1291.0 836.0,1290.0 837.0,1289.0 837.0,1288.0 838.0,1287.0 838.0,1286.0 839.0,1285.0 839.0,1283.0 840.0,1282.0 840.0,1281.0 841.0,1280.0 841.0,1279.0 842.0,1278.0 842.0,1276.0 843.0,1275.0 843.0,1274.0 844.0,1273.0 844.0,1271.0 845.0,1270.0 845.0,1268.0 846.0,1267.0 846.0,1265.0 847.0,1264.0 847.0,1262.0 848.0,1261.0 848.0,1259.0 849.0,1258.0 849.0,1255.0 850.0,1254.0 850.0,1252.0 851.0,1251.0 851.0,1248.0 852.0,1247.0 852.0,1244.0 853.0,1243.0 853.0,1239.0 854.0,1238.0 854.0,1235.0 855.0,1234.0 855.0,1228.0 856.0,1227.0 856.0,1221.0 857.0,1220.0 857.0,1211.0 858.0,1210.0 858.0,1190.0 859.0,1189.0 859.0,1152.0 858.0,1151.0 858.0,1136.0 859.0,1135.0 859.0,1127.0 858.0,1126.0 858.0,1112.0 859.0,1111.0 859.0,1102.0 858.0,1101.0 858.0,1097.0 859.0,1096.0 859.0,1089.0 858.0,1088.0 858.0,1086.0 859.0,1085.0 859.0,1084.0 858.0,1083.0 858.0,1080.0 859.0,1079.0 859.0,1071.0 858.0,1070.0 858.0,386.0 857.0,385.0 857.0,374.0 856.0,373.0 856.0,366.0 855.0,365.0 855.0,359.0 854.0,358.0 854.0,354.0 853.0,353.0 853.0,349.0 852.0,348.0 852.0,345.0 851.0,344.0 851.0,341.0 850.0,340.0 850.0,337.0 849.0,336.0 849.0,334.0 848.0,333.0 848.0,331.0 847.0,330.0 847.0,327.0 846.0,326.0 846.0,324.0 845.0,323.0 845.0,322.0 844.0,321.0 844.0,319.0 843.0,318.0 843.0,316.0 842.0,315.0 842.0,314.0 841.0,313.0 841.0,311.0 840.0,310.0 840.0,309.0 839.0,308.0 839.0,306.0 838.0,305.0 838.0,304.0 837.0,303.0 837.0,302.0 836.0,301.0 836.0,300.0 835.0,299.0 835.0,297.0 833.0,295.0 833.0,294.0 832.0,293.0 832.0,292.0 831.0,291.0 831.0,290.0 830.0,289.0 830.0,287.0 828.0,285.0 828.0,284.0 827.0,283.0 827.0,282.0 826.0,281.0 826.0,280.0 825.0,279.0 825.0,277.0 823.0,275.0 823.0,273.0 822.0,272.0 822.0,270.0 821.0,269.0 821.0,267.0 820.0,266.0 820.0,264.0 819.0,263.0 819.0,260.0 818.0,259.0 818.0,253.0 817.0,252.0 817.0,247.0 827.0,237.0 827.0,236.0 829.0,234.0 829.0,233.0 830.0,232.0 830.0,231.0 831.0,230.0 831.0,228.0 832.0,227.0 832.0,225.0 833.0,224.0 833.0,214.0 832.0,213.0 832.0,210.0 831.0,209.0 831.0,206.0 830.0,205.0 830.0,204.0 829.0,203.0 829.0,202.0 827.0,200.0 827.0,199.0 824.0,196.0 824.0,195.0 828.0,191.0 828.0,190.0 830.0,188.0 830.0,187.0 831.0,186.0 831.0,184.0 832.0,183.0 832.0,181.0 833.0,180.0 833.0,172.0 832.0,171.0 832.0,168.0 831.0,167.0 831.0,166.0 830.0,165.0 830.0,164.0 829.0,163.0 829.0,162.0 827.0,160.0 827.0,159.0 822.0,154.0 821.0,154.0 818.0,151.0 817.0,151.0 815.0,149.0 814.0,149.0 812.0,147.0 811.0,147.0 810.0,146.0 808.0,146.0 806.0,144.0 805.0,144.0 804.0,143.0 802.0,143.0 801.0,142.0 799.0,142.0 798.0,141.0 797.0,141.0 796.0,140.0 794.0,140.0 793.0,139.0 791.0,139.0 790.0,138.0 788.0,138.0 787.0,137.0 785.0,137.0 784.0,136.0 782.0,136.0 781.0,135.0 778.0,135.0 777.0,134.0 775.0,134.0 774.0,133.0 771.0,133.0 770.0,132.0 767.0,132.0 766.0,131.0 763.0,131.0 762.0,130.0 758.0,130.0 757.0,129.0 754.0,129.0 753.0,128.0 750.0,128.0 749.0,127.0 745.0,127.0 744.0,126.0 740.0,126.0 739.0,125.0 735.0,125.0 734.0,124.0 728.0,124.0 727.0,123.0 722.0,123.0 721.0,122.0 715.0,122.0 714.0,121.0 707.0,121.0 706.0,120.0 700.0,120.0 699.0,119.0 693.0,119.0 692.0,118.0 685.0,118.0 684.0,117.0 676.0,117.0 675.0,116.0 668.0,116.0 667.0,115.0 655.0,115.0 654.0,114.0 644.0,114.0 643.0,113.0 630.0,113.0 629.0,112.0 616.0,112.0 615.0,111.0 596.0,111.0 595.0,110.0 572.0,110.0 571.0,109.0" stroke="black" stroke-width="4" /></svg>